<svg xmlns="http://www.w3.org/2000/svg" viewBox="0 0 42.8 42.8" id="website"><g><path fill="#020202" stroke="#000" stroke-width=".5" d="M.25 23.06v-3.32c.13 0 .07-.16.08-.25a23.1 23.1 0 0 1 .54-3.19A21.2 21.2 0 0 1 18.53.44a4.19 4.19 0 0 0 1.21-.19h3.1c0 .08.09.06.15.07a19.47 19.47 0 0 1 2.64.35 21.2 21.2 0 0 1 16.72 17.82 5.85 5.85 0 0 0 .2 1.32v3.25c-.06 0-.07.06-.07.11 0 .46-.09.93-.16 1.39a20.91 20.91 0 0 1-6.77 12.55 20.65 20.65 0 0 1-11.24 5.24 7.28 7.28 0 0 0-1.39.2h-3.18c0-.11-.14-.07-.21-.08a21.89 21.89 0 0 1-4.24-.81A21.19 21.19 0 0 1 .45 24.31a4.41 4.41 0 0 0-.2-1.25Zm6-.72H2.42c-.22 0-.28.05-.27.28 0 .66.12 1.31.23 2a19.22 19.22 0 0 0 4.78 9.79c.14.16.22.19.39 0a19.64 19.64 0 0 1 3.91-2.68.28.28 0 0 0 .17-.39 35.68 35.68 0 0 1-1.28-8.71c0-.25-.1-.29-.32-.29-1.23.01-2.49 0-3.75 0Zm30.25 0h-3.75c-.26 0-.34.05-.35.32a36 36 0 0 1-1.27 8.64.31.31 0 0 0 .2.44 19.58 19.58 0 0 1 3.81 2.63c.2.18.3.19.48 0a19.25 19.25 0 0 0 5-11.63c0-.35-.08-.38-.38-.38-1.24-.01-2.47-.02-3.71-.02ZM6.28 20.46h3.71c.29 0 .38-.05.39-.36a35.26 35.26 0 0 1 .3-3.84 34.89 34.89 0 0 1 1-4.76c0-.15.06-.26-.12-.35a20.6 20.6 0 0 1-4-2.77c-.12-.11-.18-.1-.28 0s-.4.44-.59.68a19.18 19.18 0 0 0-4.51 11.09c0 .26.06.31.31.31 1.26-.01 2.51 0 3.79 0Zm30.25 0h3.79c.25 0 .31-.06.3-.32a18.66 18.66 0 0 0-.31-2.35 19.08 19.08 0 0 0-4.65-9.32c-.17-.19-.25-.18-.44 0a19.82 19.82 0 0 1-3.88 2.67.3.3 0 0 0-.17.42 36 36 0 0 1 1.25 8.57c0 .26.07.36.36.35 1.22-.03 2.5-.02 3.75-.02Zm-10.07 1.88h-3.78c-.28 0-.34.07-.34.34v6.27c0 .28.08.34.33.35a21 21 0 0 1 6.45 1.42c.23.09.25 0 .3-.18a35.7 35.7 0 0 0 1.12-8c0-.27-.13-.23-.29-.23Zm-10.08 0h-3.79c-.26 0-.35 0-.33.33.07.65.07 1.3.12 1.94a34.21 34.21 0 0 0 1 6c0 .18.09.23.29.15a20.56 20.56 0 0 1 6.48-1.42c.26 0 .3-.1.3-.34v-6.28c0-.3-.1-.34-.36-.34-1.23-.03-2.47-.04-3.71-.04Zm-.06-1.88h3.79c.26 0 .35-.05.34-.33v-6.24c0-.28-.09-.34-.34-.35a20.52 20.52 0 0 1-6.24-1.32c-.44-.16-.44-.16-.55.27a35.79 35.79 0 0 0-1.06 7.7c0 .23.06.27.28.27 1.26-.01 2.52 0 3.78 0Zm10.1 0h3.82c.24 0 .29-.07.29-.3 0-1.13-.12-2.26-.26-3.38a32.89 32.89 0 0 0-.85-4.49c-.05-.16-.07-.24-.28-.16a21.1 21.1 0 0 1-6.51 1.43c-.24 0-.29.1-.29.32v6.27c0 .28.1.31.33.3 1.25 0 2.5.01 3.75.01Zm-6-13.4V2.84c0-.41 0-.42-.41-.28a6.39 6.39 0 0 0-2.78 1.91A16.63 16.63 0 0 0 14.09 10c-.08.21 0 .25.16.31a19.83 19.83 0 0 0 5.83 1.32c.29 0 .39 0 .38-.35-.02-1.39-.01-2.8-.01-4.22Zm1.9 0v4.22c0 .35.11.43.42.38s.5-.05.75-.08a19.16 19.16 0 0 0 5-1.25c.15-.05.23-.1.15-.3a17.55 17.55 0 0 0-2.74-5.15 6.88 6.88 0 0 0-3.18-2.34c-.28-.09-.39-.08-.38.27.02 1.42.01 2.83.01 4.25Zm-1.9 33.27V31.4c0-.19-.08-.21-.24-.2a18.88 18.88 0 0 0-6 1.33c-.14 0-.2.1-.14.28a18.15 18.15 0 0 0 2.54 4.78A7.73 7.73 0 0 0 19.39 40a3.15 3.15 0 0 0 1.06.33Zm1.9 0a.26.26 0 0 0 .12 0l.25-.06a6.47 6.47 0 0 0 2.82-1.93 16.78 16.78 0 0 0 3.16-5.52c.08-.22 0-.24-.17-.29a19.58 19.58 0 0 0-5.84-1.32c-.31 0-.35.08-.35.35v7.32ZM16.05 3a18.64 18.64 0 0 0-7.2 3.86c-.14.12-.08.17 0 .26a19.09 19.09 0 0 0 3.45 2.3A26.07 26.07 0 0 1 13.85 6a17.38 17.38 0 0 1 2.2-3Zm10.61 0c.26.29.5.54.72.81a18.71 18.71 0 0 1 3 5.42c.09.24.15.28.38.14a20.88 20.88 0 0 0 3.1-2.15c.2-.17.18-.24 0-.39a19.33 19.33 0 0 0-5.78-3.39 8.54 8.54 0 0 0-1.42-.53Zm.05 37a18.57 18.57 0 0 0 7.34-4 20.94 20.94 0 0 0-3.21-2.3c-.29-.17-.39-.12-.51.19a18.16 18.16 0 0 1-3.62 5.98Zm-10.65 0c-.29-.35-.6-.69-.87-1.05a18.74 18.74 0 0 1-2.75-5.07c-.08-.21-.14-.3-.39-.15A21.41 21.41 0 0 0 9 35.72c-.18.15-.18.22 0 .37a21.58 21.58 0 0 0 2.48 1.78 16.66 16.66 0 0 0 4.58 1.97Z"></path></g></svg>